# xmcd
#
# Track frame offsets: 
#        150
#        34185
#        55032
#
# Disc length: 945 seconds
#
# Revision: 1
# Processed by: cddbd v1.5.2PL0 Copyright (c) Steve Scherf et al.
# Submitted via: ExactAudioCopy v1.0b3
#
DISCID=1d03af03
DTITLE=Chic - Megachic (MCD)
DYEAR=1990
DGENRE=Disco
TTITLE0=Megachic (Full length version)
TTITLE1=Jack Le Freak (edit)
TTITLE2=Le Freak (original version)
EXTD=
EXTT0=
EXTT1=
EXTT2=
PLAYORDER=
